# xmcd CD database file
#
# Track frame offsets:
#	150
#	19325
#	34619
#	51837
#
# Disc length: 924 seconds
#
# Revision: 0
# Processed by: cddbd v1.5.1PL2 Copyright (c) Steve Scherf et al.
# Submitted via: CDex 1.50beta8
#
DISCID=2b039a04
DTITLE=ACID - ACID1.7 SPIRITUAL CIRCUS
DYEAR=2005
DGENRE=Rock
TTITLE0=１５才
TTITLE1=龍宮城
TTITLE2=愛の火
TTITLE3=青い想い
EXTD=YEAR: 2005
EXTT0=
EXTT1=
EXTT2=
EXTT3=
PLAYORDER=
